<?xml version="1.0" encoding="UTF-8"?>
<svg width="25px" height="25px" viewBox="0 0 25 25" version="1.1" xmlns="http://www.w3.org/2000/svg" xmlns:xlink="http://www.w3.org/1999/xlink">
    <!-- Generator: Sketch 64 (93537) - https://sketch.com -->
    <title>Menu</title>
    <desc>Created with Sketch.</desc>
    <g id="Menu" stroke="none" stroke-width="1" fill="none" fill-rule="evenodd">
        <path d="M23.7663139,19 C24.4477198,19 25,19.6715 25,20.5 C25,21.3285 24.4481311,22 23.7667251,22 L7.23368612,22 C6.55228015,22 6,21.3285 6,20.5 C6,19.6715 6.55228015,19 7.23368612,19 L23.7663139,19 Z M1.5,19 C2.32842712,19 3,19.6715729 3,20.5 C3,21.3284271 2.32842712,22 1.5,22 C0.671572875,22 0,21.3284271 0,20.5 C0,19.6715729 0.671572875,19 1.5,19 Z M23.7663137,11 C24.4477196,11 25,11.6715 25,12.5 C25.000411,13.3285 24.4481309,14 23.7667249,14 L7.23368611,14 C6.55228015,14 6,13.3285 6,12.5 C6,11.6715 6.55228015,11 7.23368611,11 L23.7663137,11 Z M1.5,11 C2.32842712,11 3,11.6715729 3,12.5 C3,13.3284271 2.32842712,14 1.5,14 C0.671572875,14 0,13.3284271 0,12.5 C0,11.6715729 0.671572875,11 1.5,11 Z M23.7663139,3 C24.4477198,3 25,3.6715 25,4.5 C25,5.3285 24.4481311,6 23.7667251,6 L7.23368612,6 C6.55228015,6 6,5.3285 6,4.5 C6,3.6715 6.55228015,3 7.23368612,3 L23.7663139,3 Z M1.5,3 C2.32842712,3 3,3.67157288 3,4.5 C3,5.32842712 2.32842712,6 1.5,6 C0.671572875,6 0,5.32842712 0,4.5 C0,3.67157288 0.671572875,3 1.5,3 Z" id="Combined-Shape" fill="#FFFFFF" fill-rule="nonzero"></path>
    </g>
</svg>